<mxfile host="65bd71144e">
    <diagram id="D96Zk3k0EqvqW4rHzoW_" name="Page-1">
        <mxGraphModel dx="4910" dy="1933" grid="1" gridSize="10" guides="1" tooltips="1" connect="1" arrows="1" fold="1" page="1" pageScale="1" pageWidth="850" pageHeight="1100" math="0" shadow="0">
            <root>
                <mxCell id="0"/>
                <mxCell id="1" parent="0"/>
                <mxCell id="9" value="" style="group" vertex="1" connectable="0" parent="1">
                    <mxGeometry x="20" y="290" width="190" height="670" as="geometry"/>
                </mxCell>
                <mxCell id="2" value="" style="rounded=0;whiteSpace=wrap;html=1;" vertex="1" parent="9">
                    <mxGeometry width="190" height="670" as="geometry"/>
                </mxCell>
                <mxCell id="3" value="Extension Vs Code" style="rounded=0;whiteSpace=wrap;html=1;" vertex="1" parent="9">
                    <mxGeometry x="35" y="20" width="120" height="60" as="geometry"/>
                </mxCell>
                <mxCell id="4" value="Mood Equipe" style="rounded=0;whiteSpace=wrap;html=1;" vertex="1" parent="9">
                    <mxGeometry x="35" y="120" width="120" height="20" as="geometry"/>
                </mxCell>
                <mxCell id="5" value="- getEmail&lt;br&gt;-sendUp&lt;br&gt;-sendDown&lt;br&gt;-sendNeutral&lt;br&gt;-sendPostREQ&lt;br&gt;-addMessageToCoach&lt;br&gt;-popNotification" style="rounded=0;whiteSpace=wrap;html=1;align=left;" vertex="1" parent="9">
                    <mxGeometry x="7.5" y="140" width="175" height="110" as="geometry"/>
                </mxCell>
                <mxCell id="6" value="{&lt;br&gt;email :TEXT ,&amp;nbsp;&lt;br&gt;mood : INT&lt;br&gt;message : TEXT&lt;br&gt;}" style="rounded=0;whiteSpace=wrap;html=1;align=left;" vertex="1" parent="9">
                    <mxGeometry x="7.5" y="250" width="172.5" height="100" as="geometry"/>
                </mxCell>
                <mxCell id="7" value="Git Assistant" style="rounded=0;whiteSpace=wrap;html=1;" vertex="1" parent="9">
                    <mxGeometry x="30" y="380" width="120" height="20" as="geometry"/>
                </mxCell>
                <mxCell id="8" value="-getBranchs&lt;br&gt;-getStatus&lt;br&gt;-getBranchBehindMain&lt;br&gt;-getBranchAheadMain&lt;br&gt;-notifyAlertWithMessage&lt;br&gt;-......" style="rounded=0;whiteSpace=wrap;html=1;align=left;" vertex="1" parent="9">
                    <mxGeometry x="6.25" y="400" width="175" height="110" as="geometry"/>
                </mxCell>
                <mxCell id="13" value="" style="rounded=0;whiteSpace=wrap;html=1;" vertex="1" parent="1">
                    <mxGeometry x="260" y="430" width="1170" height="400" as="geometry"/>
                </mxCell>
                <mxCell id="14" value="DjangoSERVER" style="rounded=0;whiteSpace=wrap;html=1;" vertex="1" parent="1">
                    <mxGeometry x="680" y="430" width="120" height="30" as="geometry"/>
                </mxCell>
                <mxCell id="19" value="" style="endArrow=classic;html=1;exitX=1;exitY=0.5;exitDx=0;exitDy=0;entryX=0;entryY=0.25;entryDx=0;entryDy=0;" edge="1" parent="1" source="6" target="18">
                    <mxGeometry width="50" height="50" relative="1" as="geometry">
                        <mxPoint x="560" y="500" as="sourcePoint"/>
                        <mxPoint x="610" y="450" as="targetPoint"/>
                    </mxGeometry>
                </mxCell>
                <mxCell id="21" value="gitLab" style="rounded=0;whiteSpace=wrap;html=1;" vertex="1" parent="1">
                    <mxGeometry x="80" y="180" width="107.5" height="30" as="geometry"/>
                </mxCell>
                <mxCell id="23" value="" style="endArrow=classic;html=1;entryX=1;entryY=0.75;entryDx=0;entryDy=0;exitX=0;exitY=0.5;exitDx=0;exitDy=0;" edge="1" parent="1" source="12" target="21">
                    <mxGeometry width="50" height="50" relative="1" as="geometry">
                        <mxPoint x="600" y="630" as="sourcePoint"/>
                        <mxPoint x="650" y="580" as="targetPoint"/>
                    </mxGeometry>
                </mxCell>
                <mxCell id="45" value="" style="group" vertex="1" connectable="0" parent="1">
                    <mxGeometry x="520" y="60" width="920" height="310" as="geometry"/>
                </mxCell>
                <mxCell id="30" value="" style="rounded=0;whiteSpace=wrap;html=1;" vertex="1" parent="45">
                    <mxGeometry width="920" height="310" as="geometry"/>
                </mxCell>
                <mxCell id="31" value="mySQL" style="rounded=0;whiteSpace=wrap;html=1;" vertex="1" parent="45">
                    <mxGeometry x="30" y="20" width="120" height="30" as="geometry"/>
                </mxCell>
                <mxCell id="32" value="UserTabke&lt;br&gt;-id&lt;br&gt;-email&lt;br&gt;-password&lt;br&gt;-teamTableID" style="rounded=0;whiteSpace=wrap;html=1;" vertex="1" parent="45">
                    <mxGeometry x="10" y="70" width="120" height="220" as="geometry"/>
                </mxCell>
                <mxCell id="40" value="" style="edgeStyle=none;html=1;" edge="1" parent="45" source="33" target="32">
                    <mxGeometry relative="1" as="geometry"/>
                </mxCell>
                <mxCell id="33" value="TeamCoachTable&lt;br&gt;-CoachId&lt;br&gt;-TeamId" style="rounded=0;whiteSpace=wrap;html=1;" vertex="1" parent="45">
                    <mxGeometry x="180" y="70" width="120" height="220" as="geometry"/>
                </mxCell>
                <mxCell id="34" value="TeamTable&lt;br&gt;-teamName&lt;br&gt;-teamId&lt;br&gt;-teamGitlabAccessToken&lt;br&gt;" style="rounded=0;whiteSpace=wrap;html=1;" vertex="1" parent="45">
                    <mxGeometry x="350" y="50" width="220" height="230" as="geometry"/>
                </mxCell>
                <mxCell id="36" value="TeamMoodTable&lt;br&gt;-teamId&lt;br&gt;-timeStamp&lt;br&gt;-moodLevel&lt;br&gt;-coachMessage" style="rounded=0;whiteSpace=wrap;html=1;" vertex="1" parent="45">
                    <mxGeometry x="630" y="50" width="280" height="90" as="geometry"/>
                </mxCell>
                <mxCell id="37" value="TeamRepoTable&lt;br&gt;-teamId&lt;br&gt;-timeStamp&lt;br&gt;-branchNumber&lt;br&gt;-branchBehindMax&lt;br&gt;-branchAheadMax&lt;br&gt;-lastPr&lt;br&gt;-commitQUality" style="rounded=0;whiteSpace=wrap;html=1;" vertex="1" parent="45">
                    <mxGeometry x="630" y="160" width="280" height="130" as="geometry"/>
                </mxCell>
                <mxCell id="38" value="" style="endArrow=classic;html=1;exitX=1;exitY=0.5;exitDx=0;exitDy=0;" edge="1" parent="45" source="32" target="33">
                    <mxGeometry width="50" height="50" relative="1" as="geometry">
                        <mxPoint x="130" y="490" as="sourcePoint"/>
                        <mxPoint x="180" y="440" as="targetPoint"/>
                    </mxGeometry>
                </mxCell>
                <mxCell id="42" value="" style="endArrow=classic;html=1;exitX=1.021;exitY=0.56;exitDx=0;exitDy=0;exitPerimeter=0;entryX=0;entryY=0.5;entryDx=0;entryDy=0;" edge="1" parent="45" source="33" target="34">
                    <mxGeometry width="50" height="50" relative="1" as="geometry">
                        <mxPoint x="310" y="190" as="sourcePoint"/>
                        <mxPoint x="360" y="140" as="targetPoint"/>
                    </mxGeometry>
                </mxCell>
                <mxCell id="43" value="" style="endArrow=classic;html=1;exitX=1;exitY=0.5;exitDx=0;exitDy=0;entryX=0;entryY=0.5;entryDx=0;entryDy=0;" edge="1" parent="45" source="34" target="36">
                    <mxGeometry width="50" height="50" relative="1" as="geometry">
                        <mxPoint x="560" y="120.00000000000006" as="sourcePoint"/>
                        <mxPoint x="607.48" y="91.80000000000001" as="targetPoint"/>
                    </mxGeometry>
                </mxCell>
                <mxCell id="44" value="" style="endArrow=classic;html=1;entryX=0;entryY=0.5;entryDx=0;entryDy=0;" edge="1" parent="45" source="34" target="37">
                    <mxGeometry width="50" height="50" relative="1" as="geometry">
                        <mxPoint x="580" y="175" as="sourcePoint"/>
                        <mxPoint x="640" y="105" as="targetPoint"/>
                    </mxGeometry>
                </mxCell>
                <mxCell id="49" value="" style="endArrow=classic;html=1;exitX=1;exitY=0.75;exitDx=0;exitDy=0;entryX=0;entryY=0.5;entryDx=0;entryDy=0;" edge="1" parent="1" source="18" target="46">
                    <mxGeometry width="50" height="50" relative="1" as="geometry">
                        <mxPoint x="510" y="580" as="sourcePoint"/>
                        <mxPoint x="560" y="530" as="targetPoint"/>
                    </mxGeometry>
                </mxCell>
                <mxCell id="50" value="" style="endArrow=classic;html=1;exitX=1;exitY=0.75;exitDx=0;exitDy=0;entryX=0.5;entryY=1;entryDx=0;entryDy=0;" edge="1" parent="1" source="46" target="30">
                    <mxGeometry width="50" height="50" relative="1" as="geometry">
                        <mxPoint x="446.25" y="532.5" as="sourcePoint"/>
                        <mxPoint x="702.5" y="590" as="targetPoint"/>
                    </mxGeometry>
                </mxCell>
                <mxCell id="51" value="" style="endArrow=classic;html=1;exitX=0.75;exitY=1;exitDx=0;exitDy=0;entryX=0;entryY=0.75;entryDx=0;entryDy=0;" edge="1" parent="1" source="10" target="47">
                    <mxGeometry width="50" height="50" relative="1" as="geometry">
                        <mxPoint x="490" y="640" as="sourcePoint"/>
                        <mxPoint x="540" y="590" as="targetPoint"/>
                    </mxGeometry>
                </mxCell>
                <mxCell id="52" value="" style="endArrow=classic;html=1;exitX=1;exitY=0.75;exitDx=0;exitDy=0;" edge="1" parent="1" source="47" target="30">
                    <mxGeometry width="50" height="50" relative="1" as="geometry">
                        <mxPoint x="910" y="590" as="sourcePoint"/>
                        <mxPoint x="960" y="540" as="targetPoint"/>
                    </mxGeometry>
                </mxCell>
                <mxCell id="53" value="" style="group" vertex="1" connectable="0" parent="1">
                    <mxGeometry x="660" y="490" width="190" height="200" as="geometry"/>
                </mxCell>
                <mxCell id="28" value="" style="rounded=0;whiteSpace=wrap;html=1;" vertex="1" parent="53">
                    <mxGeometry width="190" height="200" as="geometry"/>
                </mxCell>
                <mxCell id="29" value="updateDB" style="rounded=0;whiteSpace=wrap;html=1;" vertex="1" parent="53">
                    <mxGeometry x="47.5" y="20" width="107.5" height="30" as="geometry"/>
                </mxCell>
                <mxCell id="46" value="updateMood" style="rounded=0;whiteSpace=wrap;html=1;" vertex="1" parent="53">
                    <mxGeometry x="47.5" y="120" width="107.5" height="30" as="geometry"/>
                </mxCell>
                <mxCell id="47" value="updateTeamRepo" style="rounded=0;whiteSpace=wrap;html=1;" vertex="1" parent="53">
                    <mxGeometry x="47.5" y="75" width="107.5" height="30" as="geometry"/>
                </mxCell>
                <mxCell id="54" value="" style="endArrow=classic;html=1;entryX=0.528;entryY=1.001;entryDx=0;entryDy=0;entryPerimeter=0;exitX=0;exitY=0.5;exitDx=0;exitDy=0;" edge="1" parent="1" source="25" target="30">
                    <mxGeometry width="50" height="50" relative="1" as="geometry">
                        <mxPoint x="1000" y="550" as="sourcePoint"/>
                        <mxPoint x="1050" y="500" as="targetPoint"/>
                    </mxGeometry>
                </mxCell>
                <mxCell id="60" value="" style="group" vertex="1" connectable="0" parent="1">
                    <mxGeometry x="990" y="900" width="420" height="150" as="geometry"/>
                </mxCell>
                <mxCell id="55" value="" style="rounded=0;whiteSpace=wrap;html=1;" vertex="1" parent="60">
                    <mxGeometry width="420" height="150" as="geometry"/>
                </mxCell>
                <mxCell id="56" value="GPT4" style="rounded=0;whiteSpace=wrap;html=1;" vertex="1" parent="60">
                    <mxGeometry x="30" y="20" width="95" height="35" as="geometry"/>
                </mxCell>
                <mxCell id="57" value="Prompt" style="rounded=0;whiteSpace=wrap;html=1;" vertex="1" parent="60">
                    <mxGeometry x="188.75" y="50" width="80" height="40" as="geometry"/>
                </mxCell>
                <mxCell id="61" value="" style="group" vertex="1" connectable="0" parent="1">
                    <mxGeometry x="1130" y="467.5" width="190" height="325" as="geometry"/>
                </mxCell>
                <mxCell id="20" value="" style="rounded=0;whiteSpace=wrap;html=1;" vertex="1" parent="61">
                    <mxGeometry width="190" height="325" as="geometry"/>
                </mxCell>
                <mxCell id="24" value="pages" style="rounded=0;whiteSpace=wrap;html=1;" vertex="1" parent="61">
                    <mxGeometry x="41.25" y="22.5" width="107.5" height="30" as="geometry"/>
                </mxCell>
                <mxCell id="25" value="-/dashboard" style="rounded=0;whiteSpace=wrap;html=1;" vertex="1" parent="61">
                    <mxGeometry x="41.25" y="87.5" width="107.5" height="30" as="geometry"/>
                </mxCell>
                <mxCell id="27" value="-/questionCoach" style="rounded=0;whiteSpace=wrap;html=1;" vertex="1" parent="61">
                    <mxGeometry x="41.25" y="202.5" width="107.5" height="30" as="geometry"/>
                </mxCell>
                <mxCell id="64" value="/login" style="rounded=0;whiteSpace=wrap;html=1;" vertex="1" parent="61">
                    <mxGeometry x="41.25" y="147.5" width="107.5" height="30" as="geometry"/>
                </mxCell>
                <mxCell id="62" value="" style="group" vertex="1" connectable="0" parent="1">
                    <mxGeometry x="290" y="440" width="185" height="115" as="geometry"/>
                </mxCell>
                <mxCell id="15" value="" style="rounded=0;whiteSpace=wrap;html=1;" vertex="1" parent="62">
                    <mxGeometry width="185" height="115" as="geometry"/>
                </mxCell>
                <mxCell id="16" value="API" style="rounded=0;whiteSpace=wrap;html=1;" vertex="1" parent="62">
                    <mxGeometry x="38.75" y="20" width="107.5" height="30" as="geometry"/>
                </mxCell>
                <mxCell id="18" value="-/sendMood" style="rounded=0;whiteSpace=wrap;html=1;" vertex="1" parent="62">
                    <mxGeometry x="38.75" y="60" width="107.5" height="30" as="geometry"/>
                </mxCell>
                <mxCell id="63" value="" style="group" vertex="1" connectable="0" parent="1">
                    <mxGeometry x="250" y="160" width="220" height="220" as="geometry"/>
                </mxCell>
                <mxCell id="10" value="" style="rounded=0;whiteSpace=wrap;html=1;" vertex="1" parent="63">
                    <mxGeometry width="220" height="220" as="geometry"/>
                </mxCell>
                <mxCell id="11" value="gitAPI" style="rounded=0;whiteSpace=wrap;html=1;" vertex="1" parent="63">
                    <mxGeometry x="50" y="20" width="120" height="30" as="geometry"/>
                </mxCell>
                <mxCell id="12" value="-getBranchAheadofMAin&lt;br&gt;-getBranchBehindMain&lt;br&gt;-getBranchNumber&lt;br&gt;-getLastPR&amp;nbsp;&lt;br&gt;-noteCommitQuality(size , message , freq )&amp;nbsp;" style="whiteSpace=wrap;html=1;aspect=fixed;" vertex="1" parent="63">
                    <mxGeometry x="50" y="65" width="140" height="140" as="geometry"/>
                </mxCell>
                <mxCell id="65" value="" style="endArrow=classic;html=1;exitX=0.5;exitY=1;exitDx=0;exitDy=0;entryX=0.5;entryY=0;entryDx=0;entryDy=0;" edge="1" parent="1" source="27" target="57">
                    <mxGeometry width="50" height="50" relative="1" as="geometry">
                        <mxPoint x="920" y="780" as="sourcePoint"/>
                        <mxPoint x="970" y="730" as="targetPoint"/>
                    </mxGeometry>
                </mxCell>
                <mxCell id="67" value="CAS" style="rounded=0;whiteSpace=wrap;html=1;" vertex="1" parent="1">
                    <mxGeometry x="600" y="960" width="120" height="60" as="geometry"/>
                </mxCell>
                <mxCell id="68" style="edgeStyle=none;html=1;exitX=0;exitY=0.5;exitDx=0;exitDy=0;" edge="1" parent="1" source="64" target="67">
                    <mxGeometry relative="1" as="geometry"/>
                </mxCell>
                <mxCell id="69" style="edgeStyle=none;html=1;exitX=0;exitY=0.5;exitDx=0;exitDy=0;" edge="1" parent="1" source="64">
                    <mxGeometry relative="1" as="geometry">
                        <mxPoint x="990" y="369.9999999999998" as="targetPoint"/>
                    </mxGeometry>
                </mxCell>
            </root>
        </mxGraphModel>
    </diagram>
</mxfile>